<mxfile host="app.diagrams.net" modified="2024-03-06T06:38:18.917Z" agent="Mozilla/5.0 (Windows NT 10.0; Win64; x64) AppleWebKit/537.36 (KHTML, like Gecko) Chrome/122.0.0.0 Safari/537.36" etag="0MSa4QeuFx-_zgdZl1E9" version="24.0.2" type="github">
  <diagram name="Page-1" id="6133507b-19e7-1e82-6fc7-422aa6c4b21f">
    <mxGraphModel dx="1500" dy="1607" grid="1" gridSize="10" guides="1" tooltips="1" connect="1" arrows="1" fold="1" page="1" pageScale="1" pageWidth="1100" pageHeight="850" background="none" math="0" shadow="0">
      <root>
        <mxCell id="0" />
        <mxCell id="1" parent="0" />
        <mxCell id="rs37JlSzHr2OIslSD41R-59" value="" style="group" vertex="1" connectable="0" parent="1">
          <mxGeometry x="45.15" y="-26.43" width="285.86" height="170" as="geometry" />
        </mxCell>
        <mxCell id="rs37JlSzHr2OIslSD41R-54" value="" style="group" vertex="1" connectable="0" parent="rs37JlSzHr2OIslSD41R-59">
          <mxGeometry width="285.86" height="170" as="geometry" />
        </mxCell>
        <mxCell id="rs37JlSzHr2OIslSD41R-7" value="&lt;div&gt;&lt;font style=&quot;background-color: initial; font-size: 18px; font-family: arial;&quot; face=&quot;arial&quot; data-font-src=&quot;https://fonts.googleapis.com/css?family=arial&quot;&gt;&lt;br&gt;&lt;/font&gt;&lt;/div&gt;&lt;div&gt;&lt;font style=&quot;background-color: initial; font-size: 18px; font-family: arial;&quot; face=&quot;arial&quot; data-font-src=&quot;https://fonts.googleapis.com/css?family=arial&quot;&gt;D&lt;/font&gt;&lt;font style=&quot;background-color: initial; font-size: 18px; font-family: arial;&quot; data-font-src=&quot;https://fonts.googleapis.com/css?family=arial&quot; face=&quot;arial&quot;&gt;iscussion with&amp;nbsp; the applicants, respective officials and seniors to collect data&lt;/font&gt;&lt;br&gt;&lt;/div&gt;" style="whiteSpace=wrap;html=1;" vertex="1" parent="rs37JlSzHr2OIslSD41R-54">
          <mxGeometry width="276" height="170" as="geometry" />
        </mxCell>
        <mxCell id="rs37JlSzHr2OIslSD41R-8" value="&lt;font face=&quot;arial&quot;&gt;&lt;font style=&quot;font-size: 24px;&quot;&gt;&lt;br&gt;&lt;span style=&quot;color: black; font-weight: bold;&quot;&gt;Requirement gathering and analysis&lt;/span&gt;&lt;br&gt;&lt;br&gt;&lt;/font&gt;&lt;br&gt;&lt;/font&gt;" style="text;strokeColor=none;align=center;fillColor=none;html=1;verticalAlign=middle;whiteSpace=wrap;rounded=0;" vertex="1" parent="rs37JlSzHr2OIslSD41R-54">
          <mxGeometry x="1.4210854715202004e-14" y="18.890495699615617" width="285.86" height="34.493253525413415" as="geometry" />
        </mxCell>
        <mxCell id="rs37JlSzHr2OIslSD41R-44" value="" style="endArrow=none;html=1;rounded=0;exitX=1;exitY=0.5;exitDx=0;exitDy=0;entryX=0;entryY=0.5;entryDx=0;entryDy=0;" edge="1" parent="rs37JlSzHr2OIslSD41R-59">
          <mxGeometry width="50" height="50" relative="1" as="geometry">
            <mxPoint x="276" y="60.365780663487875" as="sourcePoint" />
            <mxPoint y="60.365780663487875" as="targetPoint" />
            <Array as="points">
              <mxPoint x="147.8571428571429" y="60.365780663487875" />
            </Array>
          </mxGeometry>
        </mxCell>
        <mxCell id="rs37JlSzHr2OIslSD41R-60" value="" style="group" vertex="1" connectable="0" parent="1">
          <mxGeometry x="420.07" y="-26.43" width="285.86" height="197.14" as="geometry" />
        </mxCell>
        <mxCell id="rs37JlSzHr2OIslSD41R-61" value="" style="group" vertex="1" connectable="0" parent="rs37JlSzHr2OIslSD41R-60">
          <mxGeometry width="285.86" height="197.14" as="geometry" />
        </mxCell>
        <mxCell id="rs37JlSzHr2OIslSD41R-62" value="&lt;div&gt;&lt;font style=&quot;font-size: 18px;&quot; data-font-src=&quot;https://fonts.googleapis.com/css?family=arial&quot; face=&quot;arial&quot;&gt;&lt;br&gt;&lt;/font&gt;&lt;/div&gt;&lt;font style=&quot;font-size: 18px;&quot; data-font-src=&quot;https://fonts.googleapis.com/css?family=arial&quot; face=&quot;arial&quot;&gt;&lt;div&gt;&lt;font style=&quot;font-size: 18px;&quot; data-font-src=&quot;https://fonts.googleapis.com/css?family=arial&quot; face=&quot;arial&quot;&gt;&lt;br&gt;&lt;/font&gt;&lt;/div&gt;Traching out the entity types from the collected data and modeling to ER diagram&lt;/font&gt;" style="whiteSpace=wrap;html=1;" vertex="1" parent="rs37JlSzHr2OIslSD41R-61">
          <mxGeometry width="276" height="170" as="geometry" />
        </mxCell>
        <mxCell id="rs37JlSzHr2OIslSD41R-92" value="&lt;font style=&quot;font-size: 24px;&quot; face=&quot;arial&quot;&gt;&lt;b&gt;Conceptual modeling&lt;/b&gt;&lt;/font&gt;" style="text;strokeColor=none;align=center;fillColor=none;html=1;verticalAlign=middle;whiteSpace=wrap;rounded=0;" vertex="1" parent="rs37JlSzHr2OIslSD41R-61">
          <mxGeometry x="12.427136360456132" y="16.998596936187482" width="261.01" height="32.754387744749934" as="geometry" />
        </mxCell>
        <mxCell id="rs37JlSzHr2OIslSD41R-64" value="" style="endArrow=none;html=1;rounded=0;exitX=1;exitY=0.5;exitDx=0;exitDy=0;entryX=0;entryY=0.5;entryDx=0;entryDy=0;" edge="1" parent="rs37JlSzHr2OIslSD41R-61">
          <mxGeometry width="50" height="50" relative="1" as="geometry">
            <mxPoint x="276" y="60.002999999999986" as="sourcePoint" />
            <mxPoint y="60.002999999999986" as="targetPoint" />
            <Array as="points">
              <mxPoint x="147.8571428571429" y="60.002999999999986" />
              <mxPoint x="70" y="60" />
            </Array>
          </mxGeometry>
        </mxCell>
        <mxCell id="rs37JlSzHr2OIslSD41R-66" value="" style="group" vertex="1" connectable="0" parent="1">
          <mxGeometry x="798.99" y="-35.72" width="261.01" height="161.43" as="geometry" />
        </mxCell>
        <mxCell id="rs37JlSzHr2OIslSD41R-67" value="&lt;div&gt;&lt;span style=&quot;font-size: 18px; font-family: arial; background-color: initial;&quot;&gt;mapping onto data model(relational model)&lt;/span&gt;&lt;br&gt;&lt;/div&gt;" style="whiteSpace=wrap;html=1;" vertex="1" parent="rs37JlSzHr2OIslSD41R-66">
          <mxGeometry width="252.00713636045614" height="161.43" as="geometry" />
        </mxCell>
        <mxCell id="rs37JlSzHr2OIslSD41R-68" value="&lt;font style=&quot;font-size: 24px;&quot; face=&quot;arial&quot;&gt;&lt;b&gt;Logical modeling&lt;/b&gt;&lt;/font&gt;" style="text;strokeColor=none;align=center;fillColor=none;html=1;verticalAlign=middle;whiteSpace=wrap;rounded=0;" vertex="1" parent="rs37JlSzHr2OIslSD41R-66">
          <mxGeometry x="-9.002863639543818" y="8.188596936187484" width="261.01" height="32.754387744749934" as="geometry" />
        </mxCell>
        <mxCell id="rs37JlSzHr2OIslSD41R-69" value="" style="endArrow=none;html=1;rounded=0;exitX=1;exitY=0.5;exitDx=0;exitDy=0;entryX=0;entryY=0.5;entryDx=0;entryDy=0;" edge="1" parent="rs37JlSzHr2OIslSD41R-66">
          <mxGeometry width="50" height="50" relative="1" as="geometry">
            <mxPoint x="252.00713636045614" y="49.13403819620574" as="sourcePoint" />
            <mxPoint y="49.13403819620574" as="targetPoint" />
            <Array as="points">
              <mxPoint x="135.0038230502444" y="49.13403819620574" />
            </Array>
          </mxGeometry>
        </mxCell>
        <mxCell id="rs37JlSzHr2OIslSD41R-80" value="" style="group" vertex="1" connectable="0" parent="1">
          <mxGeometry x="430" y="208.57" width="266.01" height="170" as="geometry" />
        </mxCell>
        <mxCell id="rs37JlSzHr2OIslSD41R-81" value="&lt;div&gt;&lt;br&gt;&lt;/div&gt;&lt;div&gt;&lt;font face=&quot;arial&quot;&gt;&lt;span style=&quot;font-size: 18px;&quot;&gt;To implement we will use html, css, javascript as frontend, php as backend and MYSQL&lt;/span&gt;&lt;/font&gt;&lt;/div&gt;" style="whiteSpace=wrap;html=1;" vertex="1" parent="rs37JlSzHr2OIslSD41R-80">
          <mxGeometry width="266.01" height="170" as="geometry" />
        </mxCell>
        <mxCell id="rs37JlSzHr2OIslSD41R-87" value="" style="endArrow=none;html=1;rounded=0;exitX=1;exitY=0.5;exitDx=0;exitDy=0;" edge="1" parent="rs37JlSzHr2OIslSD41R-80">
          <mxGeometry width="50" height="50" relative="1" as="geometry">
            <mxPoint x="266" y="47.22505555555554" as="sourcePoint" />
            <mxPoint y="47.22222222222222" as="targetPoint" />
            <Array as="points">
              <mxPoint x="137.8571428571429" y="47.22505555555554" />
            </Array>
          </mxGeometry>
        </mxCell>
        <mxCell id="rs37JlSzHr2OIslSD41R-82" value="&lt;font face=&quot;arial&quot;&gt;&lt;span style=&quot;font-size: 24px;&quot;&gt;&lt;b&gt;Implementation&lt;/b&gt;&lt;/span&gt;&lt;/font&gt;" style="text;strokeColor=none;align=center;fillColor=none;html=1;verticalAlign=middle;whiteSpace=wrap;rounded=0;" vertex="1" parent="rs37JlSzHr2OIslSD41R-80">
          <mxGeometry x="4.997136360456125" y="9.444454782334759" width="261.01" height="32.67781912933902" as="geometry" />
        </mxCell>
        <mxCell id="rs37JlSzHr2OIslSD41R-95" value="" style="group" vertex="1" connectable="0" parent="1">
          <mxGeometry x="49.999999999999986" y="225.70999999999998" width="262.03" height="152.86" as="geometry" />
        </mxCell>
        <mxCell id="rs37JlSzHr2OIslSD41R-96" value="&lt;font style=&quot;font-size: 18px;&quot; data-font-src=&quot;https://fonts.googleapis.com/css?family=arial&quot; face=&quot;arial&quot;&gt;most user friendly design of the system will be made by discussion&lt;/font&gt;" style="whiteSpace=wrap;html=1;" vertex="1" parent="rs37JlSzHr2OIslSD41R-95">
          <mxGeometry width="262.03" height="152.86" as="geometry" />
        </mxCell>
        <mxCell id="rs37JlSzHr2OIslSD41R-97" value="" style="endArrow=none;html=1;rounded=0;exitX=1;exitY=0.5;exitDx=0;exitDy=0;" edge="1" parent="rs37JlSzHr2OIslSD41R-95">
          <mxGeometry width="50" height="50" relative="1" as="geometry">
            <mxPoint x="262.02014961843537" y="42.46365877777777" as="sourcePoint" />
            <mxPoint y="42.461111111111116" as="targetPoint" />
            <Array as="points">
              <mxPoint x="135.79454585488196" y="42.46365877777777" />
            </Array>
          </mxGeometry>
        </mxCell>
        <mxCell id="rs37JlSzHr2OIslSD41R-98" value="&lt;font face=&quot;arial&quot;&gt;&lt;span style=&quot;font-size: 24px;&quot;&gt;&lt;b&gt;System architecture&lt;/b&gt;&lt;/span&gt;&lt;/font&gt;" style="text;strokeColor=none;align=center;fillColor=none;html=1;verticalAlign=middle;whiteSpace=wrap;rounded=0;" vertex="1" parent="rs37JlSzHr2OIslSD41R-95">
          <mxGeometry x="4.922369988084351" y="8.49223151780995" width="257.1048092176986" height="29.383126071239786" as="geometry" />
        </mxCell>
        <mxCell id="rs37JlSzHr2OIslSD41R-99" value="" style="group" vertex="1" connectable="0" parent="1">
          <mxGeometry x="798.99" y="213.57" width="280" height="160" as="geometry" />
        </mxCell>
        <mxCell id="rs37JlSzHr2OIslSD41R-100" value="&lt;font style=&quot;font-size: 18px;&quot; data-font-src=&quot;https://fonts.googleapis.com/css?family=arial&quot; face=&quot;arial&quot;&gt;The table will be normalized upto BCNF using the methods learned in the therory class&lt;/font&gt;" style="whiteSpace=wrap;html=1;" vertex="1" parent="rs37JlSzHr2OIslSD41R-99">
          <mxGeometry width="280" height="160" as="geometry" />
        </mxCell>
        <mxCell id="rs37JlSzHr2OIslSD41R-101" value="" style="endArrow=none;html=1;rounded=0;exitX=1;exitY=0.5;exitDx=0;exitDy=0;" edge="1" parent="rs37JlSzHr2OIslSD41R-99">
          <mxGeometry width="50" height="50" relative="1" as="geometry">
            <mxPoint x="279.9894740799218" y="44.4471111111111" as="sourcePoint" />
            <mxPoint y="44.44444444444444" as="targetPoint" />
            <Array as="points">
              <mxPoint x="145.1073267922259" y="44.4471111111111" />
            </Array>
          </mxGeometry>
        </mxCell>
        <mxCell id="rs37JlSzHr2OIslSD41R-102" value="&lt;font face=&quot;arial&quot;&gt;&lt;span style=&quot;font-size: 24px;&quot;&gt;&lt;b&gt;Normalization&lt;/b&gt;&lt;/span&gt;&lt;/font&gt;" style="text;strokeColor=none;align=center;fillColor=none;html=1;verticalAlign=middle;whiteSpace=wrap;rounded=0;" vertex="1" parent="rs37JlSzHr2OIslSD41R-99">
          <mxGeometry x="5.259945794999116" y="8.888898618668009" width="274.73703996090376" height="30.75559447467202" as="geometry" />
        </mxCell>
        <mxCell id="rs37JlSzHr2OIslSD41R-103" value="" style="group" vertex="1" connectable="0" parent="1">
          <mxGeometry x="45.15000000000003" y="470" width="261.01" height="161.43" as="geometry" />
        </mxCell>
        <mxCell id="rs37JlSzHr2OIslSD41R-104" value="&lt;div&gt;&lt;font face=&quot;arial&quot;&gt;&lt;span style=&quot;font-size: 18px;&quot;&gt;&lt;br&gt;&lt;/span&gt;&lt;/font&gt;&lt;/div&gt;&lt;div&gt;&lt;font face=&quot;arial&quot;&gt;&lt;span style=&quot;font-size: 18px;&quot;&gt;The develop system will be validated from different end so that it works all right&lt;/span&gt;&lt;/font&gt;&lt;/div&gt;" style="whiteSpace=wrap;html=1;" vertex="1" parent="rs37JlSzHr2OIslSD41R-103">
          <mxGeometry width="252.00713636045614" height="161.43" as="geometry" />
        </mxCell>
        <mxCell id="rs37JlSzHr2OIslSD41R-105" value="&lt;font face=&quot;arial&quot;&gt;&lt;span style=&quot;font-size: 24px;&quot;&gt;&lt;b&gt;Validatation&lt;/b&gt;&lt;/span&gt;&lt;/font&gt;" style="text;strokeColor=none;align=center;fillColor=none;html=1;verticalAlign=middle;whiteSpace=wrap;rounded=0;" vertex="1" parent="rs37JlSzHr2OIslSD41R-103">
          <mxGeometry x="-9.002863639543818" y="8.188596936187484" width="261.01" height="32.754387744749934" as="geometry" />
        </mxCell>
        <mxCell id="rs37JlSzHr2OIslSD41R-106" value="" style="endArrow=none;html=1;rounded=0;exitX=1;exitY=0.5;exitDx=0;exitDy=0;entryX=0;entryY=0.5;entryDx=0;entryDy=0;" edge="1" parent="rs37JlSzHr2OIslSD41R-103">
          <mxGeometry width="50" height="50" relative="1" as="geometry">
            <mxPoint x="252.00713636045614" y="49.13403819620574" as="sourcePoint" />
            <mxPoint y="49.13403819620574" as="targetPoint" />
            <Array as="points">
              <mxPoint x="135.0038230502444" y="49.13403819620574" />
            </Array>
          </mxGeometry>
        </mxCell>
        <mxCell id="rs37JlSzHr2OIslSD41R-128" value="" style="shape=flexArrow;endArrow=classic;html=1;rounded=0;endWidth=38.75;endSize=14.5625;width=18.75;" edge="1" parent="1">
          <mxGeometry width="50" height="50" relative="1" as="geometry">
            <mxPoint x="705.93" y="69.99919929707566" as="sourcePoint" />
            <mxPoint x="789.86" y="70.54" as="targetPoint" />
          </mxGeometry>
        </mxCell>
        <mxCell id="rs37JlSzHr2OIslSD41R-129" value="" style="shape=singleArrow;whiteSpace=wrap;html=1;arrowWidth=0.4;arrowSize=0.4;" vertex="1" parent="1">
          <mxGeometry x="330" y="30" width="80" height="60" as="geometry" />
        </mxCell>
        <mxCell id="rs37JlSzHr2OIslSD41R-130" value="" style="shape=singleArrow;whiteSpace=wrap;html=1;arrowWidth=0.4;arrowSize=0.4;" vertex="1" parent="1">
          <mxGeometry x="330" y="240" width="80" height="60" as="geometry" />
        </mxCell>
        <mxCell id="rs37JlSzHr2OIslSD41R-131" value="" style="shape=singleArrow;whiteSpace=wrap;html=1;arrowWidth=0.4;arrowSize=0.4;" vertex="1" parent="1">
          <mxGeometry x="710" y="250" width="80" height="60" as="geometry" />
        </mxCell>
        <mxCell id="rs37JlSzHr2OIslSD41R-132" value="" style="shape=singleArrow;whiteSpace=wrap;html=1;arrowWidth=0.4;arrowSize=0.4;rotation=90;" vertex="1" parent="1">
          <mxGeometry x="120" y="395" width="80" height="60" as="geometry" />
        </mxCell>
      </root>
    </mxGraphModel>
  </diagram>
</mxfile>
